<mxfile host="Electron" agent="Mozilla/5.0 (X11; Linux x86_64) AppleWebKit/537.36 (KHTML, like Gecko) draw.io/27.0.9 Chrome/134.0.6998.205 Electron/35.4.0 Safari/537.36" version="27.0.9">
  <diagram name="Страница — 1" id="H42nBueQckTCqTCgXrc7">
    <mxGraphModel dx="5540" dy="3578" grid="1" gridSize="10" guides="1" tooltips="1" connect="1" arrows="1" fold="1" page="1" pageScale="1" pageWidth="827" pageHeight="1169" math="0" shadow="0">
      <root>
        <mxCell id="0" />
        <mxCell id="1" parent="0" />
        <mxCell id="MZ8vWA6o7HbH0okaRIBT-18" value="" style="rounded=0;whiteSpace=wrap;html=1;" parent="1" vertex="1">
          <mxGeometry x="-1480" y="-320" width="480" height="265" as="geometry" />
        </mxCell>
        <mxCell id="md6cQ_UZVG-VzcaIe29z-7" style="edgeStyle=orthogonalEdgeStyle;shape=connector;rounded=0;orthogonalLoop=1;jettySize=auto;html=1;entryX=0.5;entryY=1;entryDx=0;entryDy=0;strokeColor=#b85450;strokeWidth=4;align=center;verticalAlign=middle;fontFamily=Helvetica;fontSize=11;fontColor=default;labelBackgroundColor=default;endArrow=classic;fillColor=#f8cecc;" edge="1" parent="1" source="R79uFR_LP6PU_-RBtP9x-36" target="md6cQ_UZVG-VzcaIe29z-3">
          <mxGeometry relative="1" as="geometry" />
        </mxCell>
        <mxCell id="md6cQ_UZVG-VzcaIe29z-8" value="Command: CreateNewTeacher" style="edgeLabel;html=1;align=center;verticalAlign=middle;resizable=0;points=[];fontFamily=Helvetica;fontSize=15;fontColor=default;labelBackgroundColor=default;" vertex="1" connectable="0" parent="md6cQ_UZVG-VzcaIe29z-7">
          <mxGeometry x="0.0177" y="4" relative="1" as="geometry">
            <mxPoint x="19" y="-9" as="offset" />
          </mxGeometry>
        </mxCell>
        <mxCell id="R79uFR_LP6PU_-RBtP9x-36" value="&lt;span style=&quot;font-size: 22px;&quot;&gt;Hiring teachers&lt;/span&gt;" style="rounded=1;whiteSpace=wrap;html=1;labelPosition=center;verticalLabelPosition=middle;align=center;verticalAlign=top;" parent="1" vertex="1">
          <mxGeometry x="-1330" y="10" width="1250" height="770" as="geometry" />
        </mxCell>
        <mxCell id="R79uFR_LP6PU_-RBtP9x-37" value="&lt;span style=&quot;font-size: 22px;&quot;&gt;Creating and managing tests for future teachers&lt;/span&gt;" style="rounded=1;whiteSpace=wrap;html=1;labelPosition=center;verticalLabelPosition=middle;align=center;verticalAlign=top;" parent="1" vertex="1">
          <mxGeometry x="-1330" y="1060" width="1150" height="890" as="geometry" />
        </mxCell>
        <mxCell id="R79uFR_LP6PU_-RBtP9x-38" value="&lt;span style=&quot;font-size: 22px;&quot;&gt;Calculation of managers&#39; bonuses&lt;/span&gt;" style="rounded=1;whiteSpace=wrap;html=1;labelPosition=center;verticalLabelPosition=middle;align=center;verticalAlign=top;" parent="1" vertex="1">
          <mxGeometry x="-40" y="450" width="1254" height="620" as="geometry" />
        </mxCell>
        <mxCell id="R79uFR_LP6PU_-RBtP9x-17" style="edgeStyle=orthogonalEdgeStyle;rounded=0;orthogonalLoop=1;jettySize=auto;html=1;entryX=0;entryY=0.5;entryDx=0;entryDy=0;" parent="1" edge="1">
          <mxGeometry relative="1" as="geometry">
            <mxPoint x="-1040" y="1510" as="sourcePoint" />
          </mxGeometry>
        </mxCell>
        <mxCell id="R79uFR_LP6PU_-RBtP9x-28" value="&lt;span style=&quot;font-size: 12px; background-color: rgb(236, 236, 236);&quot;&gt;has_one&lt;/span&gt;" style="edgeLabel;html=1;align=center;verticalAlign=middle;resizable=0;points=[];" parent="R79uFR_LP6PU_-RBtP9x-17" vertex="1" connectable="0">
          <mxGeometry x="-0.29" y="-2" relative="1" as="geometry">
            <mxPoint x="3" y="-12" as="offset" />
          </mxGeometry>
        </mxCell>
        <mxCell id="R79uFR_LP6PU_-RBtP9x-21" style="edgeStyle=orthogonalEdgeStyle;rounded=0;orthogonalLoop=1;jettySize=auto;html=1;entryX=0.5;entryY=1;entryDx=0;entryDy=0;exitX=0;exitY=0.5;exitDx=0;exitDy=0;" parent="1" edge="1">
          <mxGeometry relative="1" as="geometry">
            <mxPoint x="-765" y="1724" as="sourcePoint" />
          </mxGeometry>
        </mxCell>
        <mxCell id="R79uFR_LP6PU_-RBtP9x-31" value="&lt;span style=&quot;font-size: 12px; background-color: rgb(236, 236, 236);&quot;&gt;has_many&lt;/span&gt;" style="edgeLabel;html=1;align=center;verticalAlign=middle;resizable=0;points=[];" parent="R79uFR_LP6PU_-RBtP9x-21" vertex="1" connectable="0">
          <mxGeometry x="0.0636" y="-2" relative="1" as="geometry">
            <mxPoint as="offset" />
          </mxGeometry>
        </mxCell>
        <mxCell id="R79uFR_LP6PU_-RBtP9x-91" style="edgeStyle=orthogonalEdgeStyle;rounded=0;orthogonalLoop=1;jettySize=auto;html=1;entryX=0.75;entryY=1;entryDx=0;entryDy=0;exitX=1;exitY=0.5;exitDx=0;exitDy=0;" parent="1" edge="1">
          <mxGeometry relative="1" as="geometry">
            <Array as="points">
              <mxPoint x="-550" y="1724" />
            </Array>
            <mxPoint x="-645" y="1724" as="sourcePoint" />
          </mxGeometry>
        </mxCell>
        <mxCell id="R79uFR_LP6PU_-RBtP9x-94" value="&lt;span style=&quot;font-size: 12px; background-color: rgb(236, 236, 236);&quot;&gt;has_many&lt;/span&gt;" style="edgeLabel;html=1;align=center;verticalAlign=middle;resizable=0;points=[];" parent="R79uFR_LP6PU_-RBtP9x-91" vertex="1" connectable="0">
          <mxGeometry x="0.3062" y="-3" relative="1" as="geometry">
            <mxPoint as="offset" />
          </mxGeometry>
        </mxCell>
        <mxCell id="R79uFR_LP6PU_-RBtP9x-14" style="edgeStyle=orthogonalEdgeStyle;rounded=0;orthogonalLoop=1;jettySize=auto;html=1;entryX=0.5;entryY=1;entryDx=0;entryDy=0;exitX=0.5;exitY=1;exitDx=0;exitDy=0;" parent="1" edge="1">
          <mxGeometry relative="1" as="geometry">
            <mxPoint x="-820" y="1690" as="sourcePoint" />
            <mxPoint x="-820" y="1690" as="targetPoint" />
          </mxGeometry>
        </mxCell>
        <mxCell id="R79uFR_LP6PU_-RBtP9x-16" style="edgeStyle=orthogonalEdgeStyle;rounded=0;orthogonalLoop=1;jettySize=auto;html=1;entryX=1;entryY=0.5;entryDx=0;entryDy=0;exitX=0;exitY=0.5;exitDx=0;exitDy=0;" parent="1" edge="1">
          <mxGeometry relative="1" as="geometry">
            <mxPoint x="-640" y="1510" as="sourcePoint" />
          </mxGeometry>
        </mxCell>
        <mxCell id="R79uFR_LP6PU_-RBtP9x-27" value="&lt;span style=&quot;font-size: 12px; background-color: rgb(236, 236, 236);&quot;&gt;has_many&lt;/span&gt;" style="edgeLabel;html=1;align=center;verticalAlign=middle;resizable=0;points=[];" parent="R79uFR_LP6PU_-RBtP9x-16" vertex="1" connectable="0">
          <mxGeometry x="-0.0667" y="1" relative="1" as="geometry">
            <mxPoint x="-1" y="-11" as="offset" />
          </mxGeometry>
        </mxCell>
        <mxCell id="R79uFR_LP6PU_-RBtP9x-115" style="edgeStyle=orthogonalEdgeStyle;shape=connector;rounded=0;orthogonalLoop=1;jettySize=auto;html=1;strokeColor=#6c8ebf;strokeWidth=4;align=center;verticalAlign=middle;fontFamily=Helvetica;fontSize=12;fontColor=default;labelBackgroundColor=default;endArrow=classic;fillColor=#dae8fc;exitX=0.437;exitY=0;exitDx=0;exitDy=0;exitPerimeter=0;entryX=0.402;entryY=0.999;entryDx=0;entryDy=0;entryPerimeter=0;" parent="1" source="R79uFR_LP6PU_-RBtP9x-37" target="R79uFR_LP6PU_-RBtP9x-36" edge="1">
          <mxGeometry relative="1" as="geometry">
            <Array as="points" />
            <mxPoint x="-828.9899999999999" y="1054.7399999999998" as="sourcePoint" />
            <mxPoint x="-826.64" y="780.0000000000001" as="targetPoint" />
          </mxGeometry>
        </mxCell>
        <mxCell id="fNp187tzvs1gquN_ihu3-10" value="Streaming:&amp;nbsp;TestCreated" style="edgeLabel;html=1;align=center;verticalAlign=middle;resizable=0;points=[];fontFamily=Helvetica;fontSize=15;fontColor=default;labelBackgroundColor=default;" parent="R79uFR_LP6PU_-RBtP9x-115" vertex="1" connectable="0">
          <mxGeometry x="-0.0261" y="3" relative="1" as="geometry">
            <mxPoint y="1" as="offset" />
          </mxGeometry>
        </mxCell>
        <mxCell id="MZ8vWA6o7HbH0okaRIBT-1" style="edgeStyle=orthogonalEdgeStyle;rounded=0;orthogonalLoop=1;jettySize=auto;html=1;strokeWidth=4;fillColor=#dae8fc;strokeColor=#6c8ebf;exitX=0.652;exitY=-0.003;exitDx=0;exitDy=0;exitPerimeter=0;entryX=0.6;entryY=0.999;entryDx=0;entryDy=0;entryPerimeter=0;" parent="1" source="R79uFR_LP6PU_-RBtP9x-37" target="R79uFR_LP6PU_-RBtP9x-36" edge="1">
          <mxGeometry relative="1" as="geometry">
            <mxPoint x="-580" y="1050" as="sourcePoint" />
            <mxPoint x="-580" y="810" as="targetPoint" />
          </mxGeometry>
        </mxCell>
        <mxCell id="fNp187tzvs1gquN_ihu3-11" value="&lt;span style=&quot;color: rgb(0, 0, 0); font-family: Helvetica; font-style: normal; font-variant-ligatures: normal; font-variant-caps: normal; font-weight: 400; letter-spacing: normal; orphans: 2; text-align: center; text-indent: 0px; text-transform: none; widows: 2; word-spacing: 0px; -webkit-text-stroke-width: 0px; white-space: nowrap; background-color: rgb(255, 255, 255); text-decoration-thickness: initial; text-decoration-style: initial; text-decoration-color: initial; float: none; display: inline !important;&quot;&gt;Streaming:&amp;nbsp;TaskCreated&lt;/span&gt;" style="edgeLabel;html=1;align=center;verticalAlign=middle;resizable=0;points=[];fontFamily=Helvetica;fontSize=15;fontColor=default;labelBackgroundColor=default;" parent="MZ8vWA6o7HbH0okaRIBT-1" vertex="1" connectable="0">
          <mxGeometry x="0.2254" y="3" relative="1" as="geometry">
            <mxPoint y="33" as="offset" />
          </mxGeometry>
        </mxCell>
        <mxCell id="R79uFR_LP6PU_-RBtP9x-113" style="edgeStyle=orthogonalEdgeStyle;shape=connector;rounded=0;orthogonalLoop=1;jettySize=auto;html=1;strokeColor=#6c8ebf;strokeWidth=4;align=center;verticalAlign=middle;fontFamily=Helvetica;fontSize=12;fontColor=default;labelBackgroundColor=default;endArrow=classic;entryX=0.189;entryY=-0.003;entryDx=0;entryDy=0;entryPerimeter=0;fillColor=#dae8fc;exitX=0.174;exitY=1.002;exitDx=0;exitDy=0;exitPerimeter=0;" parent="1" source="R79uFR_LP6PU_-RBtP9x-36" target="R79uFR_LP6PU_-RBtP9x-37" edge="1">
          <mxGeometry relative="1" as="geometry">
            <mxPoint x="-1100" y="810" as="sourcePoint" />
            <Array as="points">
              <mxPoint x="-1113" y="782" />
            </Array>
          </mxGeometry>
        </mxCell>
        <mxCell id="fNp187tzvs1gquN_ihu3-9" value="Streaming:&amp;nbsp;CandidateCreated" style="edgeLabel;html=1;align=center;verticalAlign=middle;resizable=0;points=[];fontFamily=Helvetica;fontSize=15;fontColor=default;labelBackgroundColor=default;" parent="R79uFR_LP6PU_-RBtP9x-113" vertex="1" connectable="0">
          <mxGeometry x="-0.0553" y="-1" relative="1" as="geometry">
            <mxPoint y="8" as="offset" />
          </mxGeometry>
        </mxCell>
        <mxCell id="MZ8vWA6o7HbH0okaRIBT-3" style="edgeStyle=orthogonalEdgeStyle;rounded=0;orthogonalLoop=1;jettySize=auto;html=1;entryX=0.25;entryY=0;entryDx=0;entryDy=0;strokeWidth=5;fillColor=#dae8fc;strokeColor=#6c8ebf;" parent="1" target="R79uFR_LP6PU_-RBtP9x-38" edge="1">
          <mxGeometry relative="1" as="geometry">
            <Array as="points">
              <mxPoint x="274" y="280" />
            </Array>
            <mxPoint x="-81" y="280" as="sourcePoint" />
          </mxGeometry>
        </mxCell>
        <mxCell id="fNp187tzvs1gquN_ihu3-5" value="&lt;font style=&quot;font-size: 15px;&quot;&gt;Streaming:&amp;nbsp;Rating&lt;/font&gt;" style="edgeLabel;html=1;align=center;verticalAlign=middle;resizable=0;points=[];fontFamily=Helvetica;fontSize=11;fontColor=default;labelBackgroundColor=default;" parent="MZ8vWA6o7HbH0okaRIBT-3" vertex="1" connectable="0">
          <mxGeometry x="-0.3019" y="4" relative="1" as="geometry">
            <mxPoint x="-1" y="-16" as="offset" />
          </mxGeometry>
        </mxCell>
        <mxCell id="R79uFR_LP6PU_-RBtP9x-49" style="edgeStyle=orthogonalEdgeStyle;rounded=0;orthogonalLoop=1;jettySize=auto;html=1;entryX=0.5;entryY=1;entryDx=0;entryDy=0;exitX=0.5;exitY=1;exitDx=0;exitDy=0;" parent="1" edge="1">
          <mxGeometry relative="1" as="geometry">
            <mxPoint x="-860" y="260" as="sourcePoint" />
            <mxPoint x="-860" y="260" as="targetPoint" />
          </mxGeometry>
        </mxCell>
        <mxCell id="MZ8vWA6o7HbH0okaRIBT-2" style="edgeStyle=orthogonalEdgeStyle;rounded=0;orthogonalLoop=1;jettySize=auto;html=1;entryX=0.321;entryY=1;entryDx=0;entryDy=0;entryPerimeter=0;strokeWidth=4;fillColor=#d5e8d4;strokeColor=#82b366;" parent="1" target="R79uFR_LP6PU_-RBtP9x-38" edge="1">
          <mxGeometry relative="1" as="geometry">
            <Array as="points">
              <mxPoint x="363" y="1510" />
              <mxPoint x="363" y="1100" />
            </Array>
            <mxPoint x="-180" y="1510" as="sourcePoint" />
          </mxGeometry>
        </mxCell>
        <mxCell id="fNp187tzvs1gquN_ihu3-4" value="Business event:&amp;nbsp;TaskCreated" style="edgeLabel;html=1;align=center;verticalAlign=middle;resizable=0;points=[];fontFamily=Helvetica;fontSize=15;fontColor=default;labelBackgroundColor=default;" parent="MZ8vWA6o7HbH0okaRIBT-2" vertex="1" connectable="0">
          <mxGeometry x="-0.4206" y="3" relative="1" as="geometry">
            <mxPoint y="-12" as="offset" />
          </mxGeometry>
        </mxCell>
        <mxCell id="MZ8vWA6o7HbH0okaRIBT-4" style="edgeStyle=orthogonalEdgeStyle;rounded=0;orthogonalLoop=1;jettySize=auto;html=1;exitX=1.001;exitY=0.174;exitDx=0;exitDy=0;exitPerimeter=0;entryX=0.478;entryY=0.002;entryDx=0;entryDy=0;entryPerimeter=0;fillColor=#d5e8d4;strokeColor=#82b366;strokeWidth=4;" parent="1" source="R79uFR_LP6PU_-RBtP9x-36" target="R79uFR_LP6PU_-RBtP9x-38" edge="1">
          <mxGeometry relative="1" as="geometry">
            <mxPoint x="570" y="480" as="targetPoint" />
            <Array as="points">
              <mxPoint x="559" y="144" />
            </Array>
          </mxGeometry>
        </mxCell>
        <mxCell id="fNp187tzvs1gquN_ihu3-6" value="&lt;font style=&quot;font-size: 15px;&quot;&gt;Business event: TestPassed&lt;/font&gt;" style="edgeLabel;html=1;align=center;verticalAlign=middle;resizable=0;points=[];fontFamily=Helvetica;fontSize=11;fontColor=default;labelBackgroundColor=default;" parent="MZ8vWA6o7HbH0okaRIBT-4" vertex="1" connectable="0">
          <mxGeometry x="-0.152" y="5" relative="1" as="geometry">
            <mxPoint x="-9" y="-9" as="offset" />
          </mxGeometry>
        </mxCell>
        <mxCell id="R79uFR_LP6PU_-RBtP9x-68" style="edgeStyle=orthogonalEdgeStyle;rounded=0;orthogonalLoop=1;jettySize=auto;html=1;entryX=1;entryY=0.5;entryDx=0;entryDy=0;" parent="1" edge="1">
          <mxGeometry relative="1" as="geometry">
            <Array as="points">
              <mxPoint x="670" y="970" />
            </Array>
            <mxPoint x="670" y="870" as="sourcePoint" />
          </mxGeometry>
        </mxCell>
        <mxCell id="R79uFR_LP6PU_-RBtP9x-69" value="&lt;span style=&quot;font-size: 12px; background-color: rgb(236, 236, 236);&quot;&gt;has_many&lt;/span&gt;" style="edgeLabel;html=1;align=center;verticalAlign=middle;resizable=0;points=[];" parent="R79uFR_LP6PU_-RBtP9x-68" vertex="1" connectable="0">
          <mxGeometry x="0.0636" y="-2" relative="1" as="geometry">
            <mxPoint as="offset" />
          </mxGeometry>
        </mxCell>
        <mxCell id="R79uFR_LP6PU_-RBtP9x-70" style="edgeStyle=orthogonalEdgeStyle;rounded=0;orthogonalLoop=1;jettySize=auto;html=1;entryX=0;entryY=0.5;entryDx=0;entryDy=0;exitX=1;exitY=0.5;exitDx=0;exitDy=0;" parent="1" edge="1">
          <mxGeometry relative="1" as="geometry">
            <mxPoint x="730" y="840" as="sourcePoint" />
          </mxGeometry>
        </mxCell>
        <mxCell id="R79uFR_LP6PU_-RBtP9x-71" value="&lt;span style=&quot;font-size: 12px; background-color: rgb(236, 236, 236);&quot;&gt;has_many&lt;/span&gt;" style="edgeLabel;html=1;align=center;verticalAlign=middle;resizable=0;points=[];" parent="R79uFR_LP6PU_-RBtP9x-70" vertex="1" connectable="0">
          <mxGeometry x="-0.0889" y="2" relative="1" as="geometry">
            <mxPoint x="-8" y="-8" as="offset" />
          </mxGeometry>
        </mxCell>
        <mxCell id="MZ8vWA6o7HbH0okaRIBT-8" style="edgeStyle=orthogonalEdgeStyle;rounded=0;orthogonalLoop=1;jettySize=auto;html=1;entryX=1;entryY=0.5;entryDx=0;entryDy=0;" parent="1" edge="1">
          <mxGeometry relative="1" as="geometry">
            <Array as="points">
              <mxPoint x="660" y="750" />
            </Array>
            <mxPoint x="660" y="810" as="sourcePoint" />
          </mxGeometry>
        </mxCell>
        <mxCell id="R79uFR_LP6PU_-RBtP9x-75" style="edgeStyle=orthogonalEdgeStyle;rounded=0;orthogonalLoop=1;jettySize=auto;html=1;entryX=0.5;entryY=1;entryDx=0;entryDy=0;exitX=0.5;exitY=1;exitDx=0;exitDy=0;" parent="1" edge="1">
          <mxGeometry relative="1" as="geometry">
            <mxPoint x="270" y="760" as="sourcePoint" />
            <mxPoint x="270" y="760" as="targetPoint" />
          </mxGeometry>
        </mxCell>
        <mxCell id="R79uFR_LP6PU_-RBtP9x-81" style="edgeStyle=orthogonalEdgeStyle;rounded=0;orthogonalLoop=1;jettySize=auto;html=1;entryX=0.403;entryY=1.044;entryDx=0;entryDy=0;exitX=0.5;exitY=0;exitDx=0;exitDy=0;entryPerimeter=0;" parent="1" edge="1">
          <mxGeometry relative="1" as="geometry">
            <Array as="points">
              <mxPoint x="400" y="910" />
              <mxPoint x="468" y="910" />
            </Array>
            <mxPoint x="400" y="940" as="sourcePoint" />
          </mxGeometry>
        </mxCell>
        <mxCell id="R79uFR_LP6PU_-RBtP9x-82" value="&lt;span style=&quot;font-size: 12px; background-color: rgb(236, 236, 236);&quot;&gt;has_many&lt;/span&gt;" style="edgeLabel;html=1;align=center;verticalAlign=middle;resizable=0;points=[];" parent="R79uFR_LP6PU_-RBtP9x-81" vertex="1" connectable="0">
          <mxGeometry x="-0.0667" y="1" relative="1" as="geometry">
            <mxPoint x="3" y="-33" as="offset" />
          </mxGeometry>
        </mxCell>
        <mxCell id="R79uFR_LP6PU_-RBtP9x-86" style="edgeStyle=orthogonalEdgeStyle;rounded=0;orthogonalLoop=1;jettySize=auto;html=1;entryX=1;entryY=0.5;entryDx=0;entryDy=0;" parent="1" edge="1">
          <mxGeometry relative="1" as="geometry">
            <Array as="points">
              <mxPoint x="960" y="980" />
              <mxPoint x="960" y="980" />
            </Array>
            <mxPoint x="890" y="980" as="targetPoint" />
          </mxGeometry>
        </mxCell>
        <mxCell id="R79uFR_LP6PU_-RBtP9x-87" value="&lt;span style=&quot;font-size: 12px; background-color: rgb(236, 236, 236);&quot;&gt;has_many&lt;/span&gt;" style="edgeLabel;html=1;align=center;verticalAlign=middle;resizable=0;points=[];" parent="R79uFR_LP6PU_-RBtP9x-86" vertex="1" connectable="0">
          <mxGeometry x="-0.4105" relative="1" as="geometry">
            <mxPoint x="-11" as="offset" />
          </mxGeometry>
        </mxCell>
        <mxCell id="R79uFR_LP6PU_-RBtP9x-107" style="edgeStyle=orthogonalEdgeStyle;rounded=0;orthogonalLoop=1;jettySize=auto;html=1;entryX=0.5;entryY=1;entryDx=0;entryDy=0;exitX=0;exitY=0.5;exitDx=0;exitDy=0;" parent="1" edge="1">
          <mxGeometry relative="1" as="geometry">
            <mxPoint x="340" y="970" as="sourcePoint" />
          </mxGeometry>
        </mxCell>
        <mxCell id="R79uFR_LP6PU_-RBtP9x-108" value="&lt;span style=&quot;font-size: 12px; background-color: rgb(236, 236, 236);&quot;&gt;has_one&lt;/span&gt;" style="edgeLabel;html=1;align=center;verticalAlign=middle;resizable=0;points=[];" parent="R79uFR_LP6PU_-RBtP9x-107" vertex="1" connectable="0">
          <mxGeometry x="-0.3875" y="3" relative="1" as="geometry">
            <mxPoint x="3" y="-117" as="offset" />
          </mxGeometry>
        </mxCell>
        <mxCell id="MZ8vWA6o7HbH0okaRIBT-13" style="edgeStyle=orthogonalEdgeStyle;rounded=0;orthogonalLoop=1;jettySize=auto;html=1;strokeWidth=4;fillColor=#d5e8d4;strokeColor=#82b366;" parent="1" edge="1">
          <mxGeometry relative="1" as="geometry">
            <mxPoint x="-1411" y="-190" as="sourcePoint" />
            <mxPoint x="-1241" y="-190" as="targetPoint" />
            <Array as="points">
              <mxPoint x="-1241" y="-190" />
            </Array>
          </mxGeometry>
        </mxCell>
        <mxCell id="MZ8vWA6o7HbH0okaRIBT-20" value="Business event" style="edgeLabel;html=1;align=center;verticalAlign=middle;resizable=0;points=[];fontSize=14;" parent="MZ8vWA6o7HbH0okaRIBT-13" vertex="1" connectable="0">
          <mxGeometry x="0.4639" y="-1" relative="1" as="geometry">
            <mxPoint x="127" y="-1" as="offset" />
          </mxGeometry>
        </mxCell>
        <mxCell id="fNp187tzvs1gquN_ihu3-2" value="&lt;span style=&quot;font-size: 22px;&quot;&gt;Payment&lt;/span&gt;" style="rounded=1;whiteSpace=wrap;html=1;labelPosition=center;verticalLabelPosition=middle;align=center;verticalAlign=top;" parent="1" vertex="1">
          <mxGeometry x="1560" y="600" width="310" height="280" as="geometry" />
        </mxCell>
        <mxCell id="fNp187tzvs1gquN_ihu3-3" value="&lt;span style=&quot;font-size: 22px;&quot;&gt;External hiring&lt;/span&gt;" style="rounded=1;whiteSpace=wrap;html=1;labelPosition=center;verticalLabelPosition=middle;align=center;verticalAlign=top;" parent="1" vertex="1">
          <mxGeometry x="-950" y="2160" width="290" height="100" as="geometry" />
        </mxCell>
        <mxCell id="fNp187tzvs1gquN_ihu3-7" style="edgeStyle=orthogonalEdgeStyle;rounded=0;orthogonalLoop=1;jettySize=auto;html=1;exitX=0.994;exitY=0.108;exitDx=0;exitDy=0;exitPerimeter=0;entryX=0.606;entryY=-0.001;entryDx=0;entryDy=0;entryPerimeter=0;fillColor=#d5e8d4;strokeColor=#82b366;strokeWidth=4;" parent="1" source="R79uFR_LP6PU_-RBtP9x-36" target="R79uFR_LP6PU_-RBtP9x-38" edge="1">
          <mxGeometry relative="1" as="geometry">
            <mxPoint x="558" y="427" as="targetPoint" />
            <Array as="points">
              <mxPoint x="720" y="93" />
            </Array>
            <mxPoint x="-80" y="150" as="sourcePoint" />
          </mxGeometry>
        </mxCell>
        <mxCell id="fNp187tzvs1gquN_ihu3-8" value="Business event:&amp;nbsp;TestFailed" style="edgeLabel;html=1;align=center;verticalAlign=middle;resizable=0;points=[];fontFamily=Helvetica;fontSize=15;fontColor=default;labelBackgroundColor=default;" parent="fNp187tzvs1gquN_ihu3-7" vertex="1" connectable="0">
          <mxGeometry x="-0.152" y="5" relative="1" as="geometry">
            <mxPoint x="-86" y="-9" as="offset" />
          </mxGeometry>
        </mxCell>
        <mxCell id="fNp187tzvs1gquN_ihu3-14" style="edgeStyle=orthogonalEdgeStyle;rounded=0;orthogonalLoop=1;jettySize=auto;html=1;entryX=0.809;entryY=0;entryDx=0;entryDy=0;entryPerimeter=0;fillColor=#d5e8d4;strokeColor=#82b366;strokeWidth=4;" parent="1" target="R79uFR_LP6PU_-RBtP9x-37" edge="1">
          <mxGeometry relative="1" as="geometry">
            <mxPoint x="248" y="1197" as="targetPoint" />
            <Array as="points">
              <mxPoint x="-400" y="780" />
              <mxPoint x="-400" y="1057" />
            </Array>
            <mxPoint x="-400" y="780" as="sourcePoint" />
          </mxGeometry>
        </mxCell>
        <mxCell id="fNp187tzvs1gquN_ihu3-15" value="Business event:&amp;nbsp;TestPassed" style="edgeLabel;html=1;align=center;verticalAlign=middle;resizable=0;points=[];fontFamily=Helvetica;fontSize=15;fontColor=default;labelBackgroundColor=default;" parent="fNp187tzvs1gquN_ihu3-14" vertex="1" connectable="0">
          <mxGeometry x="-0.152" y="5" relative="1" as="geometry">
            <mxPoint x="-19" y="-59" as="offset" />
          </mxGeometry>
        </mxCell>
        <mxCell id="fNp187tzvs1gquN_ihu3-16" style="edgeStyle=orthogonalEdgeStyle;rounded=0;orthogonalLoop=1;jettySize=auto;html=1;fillColor=#d5e8d4;strokeColor=#82b366;strokeWidth=4;entryX=0.869;entryY=-0.002;entryDx=0;entryDy=0;entryPerimeter=0;" parent="1" target="R79uFR_LP6PU_-RBtP9x-37" edge="1">
          <mxGeometry relative="1" as="geometry">
            <mxPoint x="-330" y="1060" as="targetPoint" />
            <Array as="points">
              <mxPoint x="-330" y="920" />
            </Array>
            <mxPoint x="-330" y="780" as="sourcePoint" />
          </mxGeometry>
        </mxCell>
        <mxCell id="fNp187tzvs1gquN_ihu3-17" value="Business event:&amp;nbsp;TestFailed" style="edgeLabel;html=1;align=center;verticalAlign=middle;resizable=0;points=[];fontFamily=Helvetica;fontSize=15;fontColor=default;labelBackgroundColor=default;" parent="fNp187tzvs1gquN_ihu3-16" vertex="1" connectable="0">
          <mxGeometry x="-0.152" y="5" relative="1" as="geometry">
            <mxPoint x="45" y="12" as="offset" />
          </mxGeometry>
        </mxCell>
        <mxCell id="md6cQ_UZVG-VzcaIe29z-1" style="edgeStyle=orthogonalEdgeStyle;shape=connector;rounded=0;orthogonalLoop=1;jettySize=auto;html=1;entryX=0.679;entryY=1.001;entryDx=0;entryDy=0;entryPerimeter=0;strokeColor=#6c8ebf;strokeWidth=4;align=center;verticalAlign=middle;fontFamily=Helvetica;fontSize=11;fontColor=default;labelBackgroundColor=default;endArrow=classic;fillColor=#dae8fc;exitX=1;exitY=0.75;exitDx=0;exitDy=0;" edge="1" parent="1" source="R79uFR_LP6PU_-RBtP9x-37" target="R79uFR_LP6PU_-RBtP9x-38">
          <mxGeometry relative="1" as="geometry" />
        </mxCell>
        <mxCell id="md6cQ_UZVG-VzcaIe29z-2" value="Streaming: ManagerCreated" style="edgeLabel;html=1;align=center;verticalAlign=middle;resizable=0;points=[];fontFamily=Helvetica;fontSize=15;fontColor=default;labelBackgroundColor=default;" vertex="1" connectable="0" parent="md6cQ_UZVG-VzcaIe29z-1">
          <mxGeometry x="-0.382" y="-3" relative="1" as="geometry">
            <mxPoint y="-20" as="offset" />
          </mxGeometry>
        </mxCell>
        <mxCell id="md6cQ_UZVG-VzcaIe29z-3" value="&lt;span style=&quot;font-size: 22px;&quot;&gt;Ibrahim&amp;amp;Oleg&#39;s system&lt;/span&gt;" style="rounded=1;whiteSpace=wrap;html=1;labelPosition=center;verticalLabelPosition=middle;align=center;verticalAlign=top;" vertex="1" parent="1">
          <mxGeometry x="-616" y="-724" width="536" height="280" as="geometry" />
        </mxCell>
        <mxCell id="md6cQ_UZVG-VzcaIe29z-9" style="edgeStyle=orthogonalEdgeStyle;rounded=0;orthogonalLoop=1;jettySize=auto;html=1;entryX=0.5;entryY=0;entryDx=0;entryDy=0;strokeWidth=4;fillColor=#f8cecc;strokeColor=#b85450;exitX=0.456;exitY=1.001;exitDx=0;exitDy=0;exitPerimeter=0;" edge="1" parent="1" source="R79uFR_LP6PU_-RBtP9x-37" target="fNp187tzvs1gquN_ihu3-3">
          <mxGeometry relative="1" as="geometry">
            <Array as="points" />
            <mxPoint x="-280" y="2650" as="sourcePoint" />
            <mxPoint x="263" y="2210" as="targetPoint" />
          </mxGeometry>
        </mxCell>
        <mxCell id="md6cQ_UZVG-VzcaIe29z-10" value="Command:&amp;nbsp;SendTaskToExternalHiring" style="edgeLabel;html=1;align=center;verticalAlign=middle;resizable=0;points=[];fontFamily=Helvetica;fontSize=15;fontColor=default;labelBackgroundColor=default;" vertex="1" connectable="0" parent="md6cQ_UZVG-VzcaIe29z-9">
          <mxGeometry x="-0.4206" y="3" relative="1" as="geometry">
            <mxPoint y="-12" as="offset" />
          </mxGeometry>
        </mxCell>
        <mxCell id="md6cQ_UZVG-VzcaIe29z-11" style="edgeStyle=orthogonalEdgeStyle;shape=connector;rounded=0;orthogonalLoop=1;jettySize=auto;html=1;entryX=-0.005;entryY=0.579;entryDx=0;entryDy=0;entryPerimeter=0;strokeColor=#b85450;strokeWidth=4;align=center;verticalAlign=middle;fontFamily=Helvetica;fontSize=11;fontColor=default;labelBackgroundColor=default;endArrow=classic;fillColor=#f8cecc;" edge="1" parent="1" source="R79uFR_LP6PU_-RBtP9x-38" target="fNp187tzvs1gquN_ihu3-2">
          <mxGeometry relative="1" as="geometry">
            <Array as="points">
              <mxPoint x="1290" y="762" />
              <mxPoint x="1290" y="762" />
            </Array>
          </mxGeometry>
        </mxCell>
        <mxCell id="md6cQ_UZVG-VzcaIe29z-13" value="Command: CreditToAccount" style="edgeLabel;html=1;align=center;verticalAlign=middle;resizable=0;points=[];fontFamily=Helvetica;fontSize=15;fontColor=default;labelBackgroundColor=default;" vertex="1" connectable="0" parent="md6cQ_UZVG-VzcaIe29z-11">
          <mxGeometry x="-0.1736" y="4" relative="1" as="geometry">
            <mxPoint x="15" y="-18" as="offset" />
          </mxGeometry>
        </mxCell>
        <mxCell id="md6cQ_UZVG-VzcaIe29z-16" style="edgeStyle=orthogonalEdgeStyle;rounded=0;orthogonalLoop=1;jettySize=auto;html=1;strokeWidth=4;fillColor=#f8cecc;strokeColor=#b85450;" edge="1" parent="1">
          <mxGeometry relative="1" as="geometry">
            <mxPoint x="-1411" y="-120" as="sourcePoint" />
            <mxPoint x="-1241" y="-120" as="targetPoint" />
            <Array as="points">
              <mxPoint x="-1241" y="-120" />
            </Array>
          </mxGeometry>
        </mxCell>
        <mxCell id="md6cQ_UZVG-VzcaIe29z-17" value="Command" style="edgeLabel;html=1;align=center;verticalAlign=middle;resizable=0;points=[];fontSize=14;" vertex="1" connectable="0" parent="md6cQ_UZVG-VzcaIe29z-16">
          <mxGeometry x="0.4639" y="-1" relative="1" as="geometry">
            <mxPoint x="106" y="-1" as="offset" />
          </mxGeometry>
        </mxCell>
        <mxCell id="md6cQ_UZVG-VzcaIe29z-18" style="edgeStyle=orthogonalEdgeStyle;rounded=0;orthogonalLoop=1;jettySize=auto;html=1;strokeWidth=4;fillColor=#dae8fc;strokeColor=#6c8ebf;" edge="1" parent="1">
          <mxGeometry relative="1" as="geometry">
            <mxPoint x="-1411" y="-260" as="sourcePoint" />
            <mxPoint x="-1241" y="-260" as="targetPoint" />
            <Array as="points">
              <mxPoint x="-1241" y="-260" />
            </Array>
          </mxGeometry>
        </mxCell>
        <mxCell id="md6cQ_UZVG-VzcaIe29z-19" value="Streaming" style="edgeLabel;html=1;align=center;verticalAlign=middle;resizable=0;points=[];fontSize=14;" vertex="1" connectable="0" parent="md6cQ_UZVG-VzcaIe29z-18">
          <mxGeometry x="0.4639" y="-1" relative="1" as="geometry">
            <mxPoint x="106" y="-1" as="offset" />
          </mxGeometry>
        </mxCell>
      </root>
    </mxGraphModel>
  </diagram>
</mxfile>
